<svg width="16" height="16" viewBox="0 0 16 16" fill="none" xmlns="http://www.w3.org/2000/svg">
<path fill-rule="evenodd" clip-rule="evenodd" d="M2.04468 15.5681L12.9517 3.021L13.351 11.8035C13.3721 12.2629 13.7617 12.6189 14.2217 12.5977C14.6814 12.5769 15.0371 12.187 15.0162 11.7273L14.5596 1.69727C14.5289 1.25293 14.3218 0.839111 13.984 0.548584C13.6462 0.258057 13.2063 0.114746 12.7622 0.150879L2.78601 1.09302C2.32776 1.13623 1.99109 1.54297 2.03442 2.00098C2.07764 2.45947 2.48413 2.79614 2.9425 2.75269L11.7125 1.90576L0.786499 14.4746C0.484497 14.822 0.52124 15.3484 0.868774 15.6504C1.21619 15.9524 1.74268 15.9155 2.04468 15.5681Z" fill="#326DF9"/>
</svg>
